<svg width="267" height="108" viewBox="0 0 267 108" fill="none" xmlns="http://www.w3.org/2000/svg">
<path d="M51.4559 59.1359L41.2159 47.6159H71.0399L88.7039 52.8639C88.8746 71.7225 88.9599 82.3892 88.9599 84.8639C88.9599 91.6052 89.6426 96.3412 91.0079 99.0719C92.4586 101.803 95.4026 103.808 99.8399 105.088C93.6959 106.709 87.8506 105.728 82.3039 102.144C76.8426 98.6452 73.8986 93.6105 73.4719 87.0399L73.0879 81.2799C70.0159 83.9252 67.2426 86.1012 64.7679 87.8079C62.2933 89.4292 59.4346 90.8799 56.1919 92.1599C53.0346 93.4399 49.7493 93.9092 46.336 93.5679C43.008 93.3119 39.5946 92.2025 36.096 90.2399C26.0266 84.5225 18.7306 79.6159 14.208 75.5199C10.2826 71.8505 7.16796 67.8825 4.86396 63.6159C2.55996 59.3492 1.15196 55.1679 0.639956 51.0719C0.213289 46.9759 0.298623 42.7945 0.895956 38.5279C1.57862 34.2612 2.90129 30.2932 4.86396 26.6239C6.82662 22.9545 9.08796 19.4559 11.648 16.1279C14.208 12.7999 17.1093 10.0265 20.352 7.80787C23.68 5.58921 27.008 3.75454 30.336 2.30387C33.7493 0.767872 37.248 0.0425376 40.832 0.12787C44.4159 0.213207 47.7866 0.895875 50.9439 2.17587C66.2186 9.17321 76.1599 13.8239 80.7679 16.1279L75.2639 22.9119C73.9839 22.3145 67.9679 19.8825 57.216 15.6159C53.4613 14.0799 49.9626 13.6532 46.7199 14.3359C43.4773 15.0185 40.2773 16.3412 37.12 18.3039C34.048 20.1812 31.4026 22.7412 29.184 25.9839C26.9653 29.2265 25.0026 32.6825 23.296 36.3519C21.5893 39.9359 20.48 43.7759 19.968 47.8719C19.5413 51.9679 19.5413 55.8505 19.968 59.5199C20.48 63.1892 21.76 66.6452 23.808 69.8879C25.856 73.1305 28.5866 75.7332 32 77.6959C34.9013 79.4025 37.8453 80.2559 40.832 80.2559C43.904 80.2559 46.7626 79.6585 49.4079 78.4639C52.0533 77.1839 54.6133 75.5199 57.0879 73.4719C59.648 71.4239 61.9946 69.2905 64.1279 67.0719C66.2613 64.8532 68.2666 62.7199 70.1439 60.6719C70.7413 59.9892 71.1679 59.4772 71.4239 59.1359H51.4559Z" fill="#FF671F"/>
<path d="M147.901 10.8799L147.773 11.2639L182.077 94.5919L165.565 90.8799L156.605 67.4559L126.397 69.5039L117.181 94.5919L99.2609 90.8799L130.237 5.63187L147.901 10.8799ZM141.501 28.1599L130.493 58.3679L152.509 56.8319L141.501 28.1599Z" fill="#06038D"/>
<path d="M208.73 17.1519L208.858 45.9519C215.429 45.9519 221.103 45.1412 225.882 43.5199C230.661 41.8132 234.159 39.7652 236.378 37.3759C238.597 34.9012 240.218 32.2985 241.242 29.5679C242.266 26.8372 242.607 24.3625 242.266 22.1439C242.01 19.9252 241.413 18.3039 240.474 17.2799C238.853 15.5732 236.25 14.5065 232.666 14.0799C229.167 13.5679 225.413 13.6532 221.402 14.3359C217.391 14.9332 213.167 15.8719 208.73 17.1519ZM208.858 52.3519L208.986 84.2239C224.175 85.7599 235.311 83.1572 242.394 76.4159C247.002 71.9785 248.666 66.9865 247.386 61.4399C246.533 57.6852 244.399 54.6559 240.986 52.3519C232.197 56.1065 221.487 56.1065 208.858 52.3519ZM208.986 91.0079L191.066 87.0399V5.24787C198.149 3.28521 206.725 2.21854 216.794 2.04788C226.949 1.87721 233.05 2.55987 235.098 4.09587C237.743 5.80254 241.285 8.7892 245.722 13.0559C250.245 17.3225 253.786 20.9492 256.346 23.9359C257.455 25.7279 258.01 27.9465 258.01 30.5919C258.01 33.2372 257.071 36.3092 255.194 39.8079C253.317 43.2212 250.799 46.1225 247.642 48.5119C254.554 52.5225 260.186 57.0025 264.538 61.9519C265.989 63.6585 266.543 66.0905 266.202 69.2479C265.861 72.4052 264.538 75.6905 262.234 79.1039C259.93 82.5172 256.431 85.5465 251.738 88.1919C247.13 90.8372 241.285 92.5012 234.202 93.1839C227.205 93.9519 218.799 93.2265 208.986 91.0079Z" fill="#046A38"/>
</svg>
